<svg xmlns="http://www.w3.org/2000/svg" viewBox="0 0 63 63">
  <defs>
    <style>
      .cls-1 {
        fill: #ffc119;
      }
    </style>
  </defs>
  <path id="email" class="cls-1" d="M25.77-33.164q.369-.492.8-.164a1.16,1.16,0,0,1,.431.984V1.125A9.031,9.031,0,0,1,25.277,6.7,5.094,5.094,0,0,1,21.094,9H-30.094a5.094,5.094,0,0,1-4.184-2.3A9.031,9.031,0,0,1-36,1.125V-32.344a.948.948,0,0,1,.431-.9.632.632,0,0,1,.8.082q4.061,4.1,18.949,18.539l1.23,1.477A51.054,51.054,0,0,0-9.914-8.883,9.509,9.509,0,0,0-4.5-6.75a9.125,9.125,0,0,0,5.414-2.3A35.815,35.815,0,0,0,5.59-13.313l1.23-1.312Q21.34-28.57,25.77-33.164ZM-4.5-12q-1.6,0-3.937-1.969a31,31,0,0,1-3.814-3.609l-1.23-1.148Q-28.617-33.492-34.031-39.07l-.861-.82A4.3,4.3,0,0,1-36-43.008v-3.117A9.031,9.031,0,0,1-34.277-51.7,5.094,5.094,0,0,1-30.094-54H21.094a5.094,5.094,0,0,1,4.184,2.3A9.031,9.031,0,0,1,27-46.125v3.117a4.3,4.3,0,0,1-1.107,3.117l-.615.656Q19.986-33.656,4.482-18.727l-1.23,1.148A31,31,0,0,1-.563-13.969Q-2.9-12-4.5-12Z" transform="translate(36 54)"/>
</svg>
