<svg xmlns="http://www.w3.org/2000/svg" viewBox="0 0 63 63">
  <defs>
    <style>
      .cls-1 {
        fill: #ffc119;
      }
    </style>
  </defs>
  <path id="facebook" class="cls-1" d="M31.5-54.984a3.307,3.307,0,0,0-1.055-2.531,3.493,3.493,0,0,0-2.461-.984H-27.984a3.426,3.426,0,0,0-2.531.984,3.426,3.426,0,0,0-.984,2.531V.984a3.493,3.493,0,0,0,.984,2.461A3.307,3.307,0,0,0-27.984,4.5H2.109V-19.969H-6.047v-9.422H2.109v-7.031q0-6.047,3.375-9.281a12.27,12.27,0,0,1,8.859-3.234q4.359,0,7.312.281v8.578H16.594a4.874,4.874,0,0,0-3.8,1.266,5.226,5.226,0,0,0-.844,3.375v6.047h9.422l-1.266,9.422H11.953V4.5H27.984a3.307,3.307,0,0,0,2.531-1.055A3.493,3.493,0,0,0,31.5.984Z" transform="translate(31.5 58.5)"/>
</svg>
