<svg xmlns="http://www.w3.org/2000/svg" viewBox="0 0 63 63">
  <defs>
    <style>
      .cls-1 {
        fill: #ffc119;
      }
    </style>
  </defs>
  <path id="linkedin" class="cls-1" d="M27-58.5a4.325,4.325,0,0,1,3.164,1.336A4.325,4.325,0,0,1,31.5-54V0a4.325,4.325,0,0,1-1.336,3.164A4.325,4.325,0,0,1,27,4.5H-27a4.325,4.325,0,0,1-3.164-1.336A4.325,4.325,0,0,1-31.5,0V-54a4.325,4.325,0,0,1,1.336-3.164A4.325,4.325,0,0,1-27-58.5Zm-39.516,54h.141V-34.594H-21.8V-4.5Zm-4.641-34.172a5.277,5.277,0,0,0,3.867-1.617,5.2,5.2,0,0,0,1.617-3.8,5.2,5.2,0,0,0-1.617-3.8A5.277,5.277,0,0,0-17.156-49.5a5.05,5.05,0,0,0-3.8,1.617,5.315,5.315,0,0,0-1.547,3.8,5.315,5.315,0,0,0,1.547,3.8A5.05,5.05,0,0,0-17.156-38.672ZM22.5-4.5V-20.953q0-7.031-1.969-10.266Q17.859-35.3,11.391-35.3A10.834,10.834,0,0,0,5.625-33.75a7.866,7.866,0,0,0-3.094,3.234H2.391v-4.078h-9V-4.5H2.672V-19.406a11.539,11.539,0,0,1,.984-5.344A4.96,4.96,0,0,1,8.3-27.141q3.234,0,4.219,2.672a14.9,14.9,0,0,1,.7,5.344V-4.5Z" transform="translate(31.5 58.5)"/>
</svg>
